%TF.GenerationSoftware,KiCad,Pcbnew,(6.0.7-1)-1*%
%TF.CreationDate,2023-01-13T02:49:20+01:00*%
%TF.ProjectId,Astraveus_Testtech,41737472-6176-4657-9573-5f5465737474,0.1*%
%TF.SameCoordinates,Original*%
%TF.FileFunction,Profile,NP*%
%FSLAX46Y46*%
G04 Gerber Fmt 4.6, Leading zero omitted, Abs format (unit mm)*
G04 Created by KiCad (PCBNEW (6.0.7-1)-1) date 2023-01-13 02:49:20*
%MOMM*%
%LPD*%
G01*
G04 APERTURE LIST*
%TA.AperFunction,Profile*%
%ADD10C,0.100000*%
%TD*%
G04 APERTURE END LIST*
D10*
X150750000Y-67750000D02*
G75*
G03*
X151250000Y-68250000I500000J0D01*
G01*
X151750000Y-60750000D02*
X151750000Y-67250000D01*
X150750000Y-103750000D02*
X150750000Y-96250000D01*
X48500000Y-131750000D02*
X59250000Y-131750000D01*
X150750000Y-121750000D02*
X150750000Y-114250000D01*
X58750000Y-193250000D02*
X58750000Y-186750000D01*
X162000000Y-121250000D02*
X151750000Y-121250000D01*
X59250000Y-122250000D02*
G75*
G03*
X59750000Y-121750000I0J500000D01*
G01*
X48500000Y-96750000D02*
X58750000Y-96750000D01*
X162000000Y-139250000D02*
X151750000Y-139250000D01*
X48500000Y-103250000D02*
X58750000Y-103250000D01*
X59750000Y-132250000D02*
G75*
G03*
X59250000Y-131750000I-500000J0D01*
G01*
X162000000Y-132750000D02*
X151750000Y-132750000D01*
X48500000Y-185750000D02*
G75*
G03*
X48500000Y-186750000I0J-500000D01*
G01*
X162000000Y-168750000D02*
G75*
G03*
X162000000Y-167750000I0J500000D01*
G01*
X150750000Y-121750000D02*
X150750000Y-114250000D01*
X59750000Y-132250000D02*
X59750000Y-139750000D01*
X162000000Y-96750000D02*
X151750000Y-96750000D01*
X58750000Y-193250000D02*
X58750000Y-186750000D01*
X162000000Y-78750000D02*
G75*
G03*
X162000000Y-77750000I0J500000D01*
G01*
X162000000Y-60750000D02*
G75*
G03*
X162000000Y-59750000I0J500000D01*
G01*
X162000000Y-132750000D02*
X151750000Y-132750000D01*
X59250000Y-104250000D02*
X48500000Y-104250000D01*
X162000000Y-96750000D02*
G75*
G03*
X162000000Y-95750000I0J500000D01*
G01*
X150750000Y-121750000D02*
X150750000Y-114250000D01*
X162000000Y-96750000D02*
G75*
G03*
X162000000Y-95750000I0J500000D01*
G01*
X59250000Y-104250000D02*
X48500000Y-104250000D01*
X151250000Y-113750000D02*
X162000000Y-113750000D01*
X58750000Y-157250000D02*
X58750000Y-150750000D01*
X162000000Y-122250000D02*
G75*
G03*
X162000000Y-121250000I0J500000D01*
G01*
X162000000Y-96750000D02*
G75*
G03*
X162000000Y-95750000I0J500000D01*
G01*
X48500000Y-103250000D02*
X58750000Y-103250000D01*
X48500000Y-77750000D02*
X59250000Y-77750000D01*
X162000000Y-168750000D02*
X151750000Y-168750000D01*
X151750000Y-78750000D02*
X151750000Y-85250000D01*
X90750000Y-200750000D02*
X96250000Y-196250000D01*
X162000000Y-114750000D02*
X151750000Y-114750000D01*
X123750000Y-200750000D02*
X119250000Y-195250000D01*
X48500000Y-175250000D02*
X58750000Y-175250000D01*
X162000000Y-86250000D02*
X151250000Y-86250000D01*
X59750000Y-186250000D02*
G75*
G03*
X59250000Y-185750000I-500000J0D01*
G01*
X48500000Y-150750000D02*
X58750000Y-150750000D01*
X48500000Y-114750000D02*
X58750000Y-114750000D01*
X59250000Y-140250000D02*
X48500000Y-140250000D01*
X48500000Y-121250000D02*
X58750000Y-121250000D01*
X48500000Y-149750000D02*
G75*
G03*
X48500000Y-150750000I0J-500000D01*
G01*
X48500000Y-59750000D02*
G75*
G03*
X48500000Y-60750000I0J-500000D01*
G01*
X151750000Y-78750000D02*
X151750000Y-85250000D01*
X59250000Y-86250000D02*
X48500000Y-86250000D01*
X151250000Y-59750000D02*
G75*
G03*
X150750000Y-60250000I0J-500000D01*
G01*
X95250000Y-195250000D02*
X89750000Y-199750000D01*
X151250000Y-185750000D02*
X162000000Y-185750000D01*
X162000000Y-158250000D02*
G75*
G03*
X162000000Y-157250000I0J500000D01*
G01*
X59750000Y-60250000D02*
G75*
G03*
X59250000Y-59750000I-500000J0D01*
G01*
X59750000Y-78250000D02*
X59750000Y-85750000D01*
X151750000Y-132750000D02*
X151750000Y-139250000D01*
X150750000Y-193750000D02*
G75*
G03*
X151250000Y-194250000I500000J0D01*
G01*
X162000000Y-121250000D02*
X151750000Y-121250000D01*
X162000000Y-78750000D02*
G75*
G03*
X162000000Y-77750000I0J500000D01*
G01*
X162000000Y-176250000D02*
G75*
G03*
X162000000Y-175250000I0J500000D01*
G01*
X59750000Y-150250000D02*
G75*
G03*
X59250000Y-149750000I-500000J0D01*
G01*
X59750000Y-114250000D02*
X59750000Y-121750000D01*
X151250000Y-95750000D02*
G75*
G03*
X150750000Y-96250000I0J-500000D01*
G01*
X59250000Y-122250000D02*
X48500000Y-122250000D01*
X48500000Y-96750000D02*
X58750000Y-96750000D01*
X48500000Y-77750000D02*
X59250000Y-77750000D01*
X150750000Y-85750000D02*
G75*
G03*
X151250000Y-86250000I500000J0D01*
G01*
X59750000Y-150250000D02*
X59750000Y-157750000D01*
X151750000Y-114750000D02*
X151750000Y-121250000D01*
X59750000Y-114250000D02*
G75*
G03*
X59250000Y-113750000I-500000J0D01*
G01*
X150750000Y-139750000D02*
X150750000Y-132250000D01*
X151750000Y-114750000D02*
X151750000Y-121250000D01*
X59250000Y-68250000D02*
X48500000Y-68250000D01*
X151750000Y-150750000D02*
X151750000Y-157250000D01*
X48500000Y-85250000D02*
X58750000Y-85250000D01*
X48500000Y-131750000D02*
X59250000Y-131750000D01*
X150750000Y-121750000D02*
G75*
G03*
X151250000Y-122250000I500000J0D01*
G01*
X48500000Y-168750000D02*
X58750000Y-168750000D01*
X151250000Y-95750000D02*
X162000000Y-95750000D01*
X48500000Y-77750000D02*
G75*
G03*
X48500000Y-78750000I0J-500000D01*
G01*
X162000000Y-60750000D02*
X151750000Y-60750000D01*
X48500000Y-113750000D02*
G75*
G03*
X48500000Y-114750000I0J-500000D01*
G01*
X48500000Y-175250000D02*
G75*
G03*
X48500000Y-176250000I0J-500000D01*
G01*
X59750000Y-186250000D02*
G75*
G03*
X59250000Y-185750000I-500000J0D01*
G01*
X95250000Y-195250000D02*
X119250000Y-195250000D01*
X48500000Y-185750000D02*
X59250000Y-185750000D01*
X162000000Y-193250000D02*
X151750000Y-193250000D01*
X151750000Y-60750000D02*
X151750000Y-67250000D01*
X162000000Y-193250000D02*
X151750000Y-193250000D01*
X162000000Y-78750000D02*
X151750000Y-78750000D01*
X59250000Y-176250000D02*
X48500000Y-176250000D01*
X48500000Y-149750000D02*
X59250000Y-149750000D01*
X162000000Y-104250000D02*
G75*
G03*
X162000000Y-103250000I0J500000D01*
G01*
X162000000Y-186750000D02*
X151750000Y-186750000D01*
X162000000Y-67250000D02*
X151750000Y-67250000D01*
X162000000Y-104250000D02*
X151250000Y-104250000D01*
X150750000Y-175750000D02*
X150750000Y-168250000D01*
X59750000Y-114250000D02*
G75*
G03*
X59250000Y-113750000I-500000J0D01*
G01*
X150750000Y-121750000D02*
G75*
G03*
X151250000Y-122250000I500000J0D01*
G01*
X59250000Y-104250000D02*
G75*
G03*
X59750000Y-103750000I0J500000D01*
G01*
X48500000Y-96750000D02*
X58750000Y-96750000D01*
X58750000Y-85250000D02*
X58750000Y-78750000D01*
X162000000Y-150750000D02*
G75*
G03*
X162000000Y-149750000I0J500000D01*
G01*
X59250000Y-86250000D02*
G75*
G03*
X59750000Y-85750000I0J500000D01*
G01*
X162000000Y-158250000D02*
X151250000Y-158250000D01*
X63500000Y-200750000D02*
X52750000Y-200750000D01*
X162000000Y-132750000D02*
G75*
G03*
X162000000Y-131750000I0J500000D01*
G01*
X162000000Y-114750000D02*
X151750000Y-114750000D01*
X162000000Y-194250000D02*
G75*
G03*
X162000000Y-193250000I0J500000D01*
G01*
X151250000Y-131750000D02*
G75*
G03*
X150750000Y-132250000I0J-500000D01*
G01*
X151250000Y-113750000D02*
G75*
G03*
X150750000Y-114250000I0J-500000D01*
G01*
X48500000Y-167750000D02*
G75*
G03*
X48500000Y-168750000I0J-500000D01*
G01*
X151250000Y-113750000D02*
X162000000Y-113750000D01*
X162000000Y-85250000D02*
X151750000Y-85250000D01*
X151250000Y-185750000D02*
G75*
G03*
X150750000Y-186250000I0J-500000D01*
G01*
X48500000Y-193250000D02*
G75*
G03*
X48500000Y-194250000I0J-500000D01*
G01*
X59250000Y-140250000D02*
X48500000Y-140250000D01*
X59250000Y-140250000D02*
X48500000Y-140250000D01*
X21000000Y-55000000D02*
X188500000Y-55000000D01*
X188500000Y-55000000D02*
X188500000Y-211500000D01*
X188500000Y-211500000D02*
X21000000Y-211500000D01*
X21000000Y-211500000D02*
X21000000Y-55000000D01*
X162000000Y-175250000D02*
X151750000Y-175250000D01*
X151250000Y-149750000D02*
G75*
G03*
X150750000Y-150250000I0J-500000D01*
G01*
X48500000Y-185750000D02*
X59250000Y-185750000D01*
X59750000Y-150250000D02*
X59750000Y-157750000D01*
X162000000Y-114750000D02*
G75*
G03*
X162000000Y-113750000I0J500000D01*
G01*
X162000000Y-103250000D02*
X151750000Y-103250000D01*
X48500000Y-114750000D02*
X58750000Y-114750000D01*
X59750000Y-168250000D02*
G75*
G03*
X59250000Y-167750000I-500000J0D01*
G01*
X162000000Y-175250000D02*
X151750000Y-175250000D01*
X151250000Y-185750000D02*
G75*
G03*
X150750000Y-186250000I0J-500000D01*
G01*
X52750000Y-199750000D02*
G75*
G03*
X52750000Y-200750000I0J-500000D01*
G01*
X150750000Y-85750000D02*
G75*
G03*
X151250000Y-86250000I500000J0D01*
G01*
X52750000Y-199750000D02*
X63000000Y-199750000D01*
X150750000Y-193750000D02*
X150750000Y-186250000D01*
X162000000Y-122250000D02*
X151250000Y-122250000D01*
X151250000Y-167750000D02*
G75*
G03*
X150750000Y-168250000I0J-500000D01*
G01*
X59250000Y-86250000D02*
G75*
G03*
X59750000Y-85750000I0J500000D01*
G01*
X59750000Y-168250000D02*
G75*
G03*
X59250000Y-167750000I-500000J0D01*
G01*
X151750000Y-186750000D02*
X151750000Y-193250000D01*
X151750000Y-96750000D02*
X151750000Y-103250000D01*
X59250000Y-86250000D02*
X48500000Y-86250000D01*
X162000000Y-122250000D02*
X151250000Y-122250000D01*
X48500000Y-78750000D02*
X58750000Y-78750000D01*
X151250000Y-95750000D02*
G75*
G03*
X150750000Y-96250000I0J-500000D01*
G01*
X48500000Y-60750000D02*
X58750000Y-60750000D01*
X150750000Y-67750000D02*
X150750000Y-60250000D01*
X48500000Y-149750000D02*
X59250000Y-149750000D01*
X162000000Y-186750000D02*
G75*
G03*
X162000000Y-185750000I0J500000D01*
G01*
X59750000Y-186250000D02*
X59750000Y-193750000D01*
X48500000Y-77750000D02*
X59250000Y-77750000D01*
X48500000Y-95750000D02*
X59250000Y-95750000D01*
X59750000Y-78250000D02*
G75*
G03*
X59250000Y-77750000I-500000J0D01*
G01*
X162000000Y-194250000D02*
G75*
G03*
X162000000Y-193250000I0J500000D01*
G01*
X58750000Y-175250000D02*
X58750000Y-168750000D01*
X59750000Y-168250000D02*
X59750000Y-175750000D01*
X59750000Y-96250000D02*
G75*
G03*
X59250000Y-95750000I-500000J0D01*
G01*
X48500000Y-149750000D02*
G75*
G03*
X48500000Y-150750000I0J-500000D01*
G01*
X162000000Y-176250000D02*
X151250000Y-176250000D01*
X48500000Y-186750000D02*
X58750000Y-186750000D01*
X151250000Y-131750000D02*
G75*
G03*
X150750000Y-132250000I0J-500000D01*
G01*
X59250000Y-194250000D02*
X48500000Y-194250000D01*
X162000000Y-176250000D02*
G75*
G03*
X162000000Y-175250000I0J500000D01*
G01*
X162000000Y-168750000D02*
X151750000Y-168750000D01*
X150750000Y-157750000D02*
G75*
G03*
X151250000Y-158250000I500000J0D01*
G01*
X162000000Y-86250000D02*
G75*
G03*
X162000000Y-85250000I0J500000D01*
G01*
X150750000Y-139750000D02*
G75*
G03*
X151250000Y-140250000I500000J0D01*
G01*
X162000000Y-67250000D02*
X151750000Y-67250000D01*
X48500000Y-167750000D02*
G75*
G03*
X48500000Y-168750000I0J-500000D01*
G01*
X58750000Y-121250000D02*
X58750000Y-114750000D01*
X59250000Y-194250000D02*
G75*
G03*
X59750000Y-193750000I0J500000D01*
G01*
X162000000Y-194250000D02*
X151250000Y-194250000D01*
X118250000Y-196250000D02*
X122750000Y-201750000D01*
X48500000Y-95750000D02*
G75*
G03*
X48500000Y-96750000I0J-500000D01*
G01*
X48500000Y-95750000D02*
X59250000Y-95750000D01*
X162000000Y-60750000D02*
X151750000Y-60750000D01*
X59250000Y-158250000D02*
X48500000Y-158250000D01*
X151250000Y-77750000D02*
X162000000Y-77750000D01*
X150750000Y-193750000D02*
G75*
G03*
X151250000Y-194250000I500000J0D01*
G01*
X162000000Y-186750000D02*
G75*
G03*
X162000000Y-185750000I0J500000D01*
G01*
X59750000Y-114250000D02*
G75*
G03*
X59250000Y-113750000I-500000J0D01*
G01*
X48500000Y-131750000D02*
G75*
G03*
X48500000Y-132750000I0J-500000D01*
G01*
X48500000Y-85250000D02*
G75*
G03*
X48500000Y-86250000I0J-500000D01*
G01*
X48500000Y-167750000D02*
X59250000Y-167750000D01*
X48500000Y-113750000D02*
X59250000Y-113750000D01*
X48500000Y-139250000D02*
X58750000Y-139250000D01*
X48500000Y-193250000D02*
X58750000Y-193250000D01*
X59250000Y-194250000D02*
G75*
G03*
X59750000Y-193750000I0J500000D01*
G01*
X58750000Y-85250000D02*
X58750000Y-78750000D01*
X150750000Y-157750000D02*
G75*
G03*
X151250000Y-158250000I500000J0D01*
G01*
X48500000Y-59750000D02*
X59250000Y-59750000D01*
X162000000Y-176250000D02*
G75*
G03*
X162000000Y-175250000I0J500000D01*
G01*
X158250000Y-201750000D02*
X122750000Y-201750000D01*
X48500000Y-132750000D02*
X58750000Y-132750000D01*
X151750000Y-168750000D02*
X151750000Y-175250000D01*
X162000000Y-158250000D02*
X151250000Y-158250000D01*
X90750000Y-200750000D02*
X52750000Y-200750000D01*
X150750000Y-85750000D02*
X150750000Y-78250000D01*
X150750000Y-103750000D02*
X150750000Y-96250000D01*
X150750000Y-67750000D02*
G75*
G03*
X151250000Y-68250000I500000J0D01*
G01*
X48500000Y-175250000D02*
X58750000Y-175250000D01*
X162000000Y-186750000D02*
X151750000Y-186750000D01*
X59750000Y-168250000D02*
G75*
G03*
X59250000Y-167750000I-500000J0D01*
G01*
X48500000Y-114750000D02*
X58750000Y-114750000D01*
X150750000Y-193750000D02*
X150750000Y-186250000D01*
X150750000Y-157750000D02*
X150750000Y-150250000D01*
X59750000Y-132250000D02*
G75*
G03*
X59250000Y-131750000I-500000J0D01*
G01*
X151250000Y-95750000D02*
X162000000Y-95750000D01*
X162000000Y-158250000D02*
X151250000Y-158250000D01*
X59250000Y-176250000D02*
X48500000Y-176250000D01*
X150750000Y-157750000D02*
G75*
G03*
X151250000Y-158250000I500000J0D01*
G01*
X151250000Y-167750000D02*
X162000000Y-167750000D01*
X151250000Y-167750000D02*
X162000000Y-167750000D01*
X58750000Y-157250000D02*
X58750000Y-150750000D01*
X48500000Y-113750000D02*
G75*
G03*
X48500000Y-114750000I0J-500000D01*
G01*
X48500000Y-78750000D02*
X58750000Y-78750000D01*
X48500000Y-121250000D02*
X58750000Y-121250000D01*
X59750000Y-96250000D02*
X59750000Y-103750000D01*
X151250000Y-77750000D02*
X162000000Y-77750000D01*
X162000000Y-140250000D02*
X151250000Y-140250000D01*
X162000000Y-139250000D02*
X151750000Y-139250000D01*
X162000000Y-132750000D02*
X151750000Y-132750000D01*
X48500000Y-193250000D02*
G75*
G03*
X48500000Y-194250000I0J-500000D01*
G01*
X150750000Y-85750000D02*
X150750000Y-78250000D01*
X162000000Y-68250000D02*
X151250000Y-68250000D01*
X162000000Y-60750000D02*
X151750000Y-60750000D01*
X151250000Y-77750000D02*
G75*
G03*
X150750000Y-78250000I0J-500000D01*
G01*
X162000000Y-122250000D02*
G75*
G03*
X162000000Y-121250000I0J500000D01*
G01*
X59750000Y-96250000D02*
G75*
G03*
X59250000Y-95750000I-500000J0D01*
G01*
X48500000Y-139250000D02*
X58750000Y-139250000D01*
X162000000Y-78750000D02*
X151750000Y-78750000D01*
X151250000Y-131750000D02*
X162000000Y-131750000D01*
X151750000Y-132750000D02*
X151750000Y-139250000D01*
X48500000Y-150750000D02*
X58750000Y-150750000D01*
X162000000Y-140250000D02*
X151250000Y-140250000D01*
X59250000Y-158250000D02*
G75*
G03*
X59750000Y-157750000I0J500000D01*
G01*
X151750000Y-186750000D02*
X151750000Y-193250000D01*
X150750000Y-103750000D02*
G75*
G03*
X151250000Y-104250000I500000J0D01*
G01*
X151750000Y-60750000D02*
X151750000Y-67250000D01*
X150750000Y-85750000D02*
G75*
G03*
X151250000Y-86250000I500000J0D01*
G01*
X162000000Y-186750000D02*
G75*
G03*
X162000000Y-185750000I0J500000D01*
G01*
X162000000Y-68250000D02*
X151250000Y-68250000D01*
X58750000Y-103250000D02*
X58750000Y-96750000D01*
X151750000Y-150750000D02*
X151750000Y-157250000D01*
X151250000Y-131750000D02*
X162000000Y-131750000D01*
X162000000Y-86250000D02*
G75*
G03*
X162000000Y-85250000I0J500000D01*
G01*
X48500000Y-131750000D02*
G75*
G03*
X48500000Y-132750000I0J-500000D01*
G01*
X162000000Y-168750000D02*
G75*
G03*
X162000000Y-167750000I0J500000D01*
G01*
X48500000Y-185750000D02*
G75*
G03*
X48500000Y-186750000I0J-500000D01*
G01*
X48500000Y-132750000D02*
X58750000Y-132750000D01*
X151250000Y-59750000D02*
G75*
G03*
X150750000Y-60250000I0J-500000D01*
G01*
X162000000Y-96750000D02*
X151750000Y-96750000D01*
X150750000Y-175750000D02*
G75*
G03*
X151250000Y-176250000I500000J0D01*
G01*
X150750000Y-175750000D02*
G75*
G03*
X151250000Y-176250000I500000J0D01*
G01*
X48500000Y-95750000D02*
G75*
G03*
X48500000Y-96750000I0J-500000D01*
G01*
X150750000Y-139750000D02*
X150750000Y-132250000D01*
X162000000Y-157250000D02*
X151750000Y-157250000D01*
X151750000Y-132750000D02*
X151750000Y-139250000D01*
X162000000Y-176250000D02*
X151250000Y-176250000D01*
X48500000Y-193250000D02*
X58750000Y-193250000D01*
X151250000Y-113750000D02*
G75*
G03*
X150750000Y-114250000I0J-500000D01*
G01*
X162000000Y-122250000D02*
X151250000Y-122250000D01*
X162000000Y-140250000D02*
G75*
G03*
X162000000Y-139250000I0J500000D01*
G01*
X162000000Y-78750000D02*
X151750000Y-78750000D01*
X48500000Y-131750000D02*
G75*
G03*
X48500000Y-132750000I0J-500000D01*
G01*
X162000000Y-103250000D02*
X151750000Y-103250000D01*
X48500000Y-131750000D02*
X59250000Y-131750000D01*
X58750000Y-67250000D02*
X58750000Y-60750000D01*
X48500000Y-103250000D02*
G75*
G03*
X48500000Y-104250000I0J-500000D01*
G01*
X48500000Y-186750000D02*
X58750000Y-186750000D01*
X48500000Y-95750000D02*
G75*
G03*
X48500000Y-96750000I0J-500000D01*
G01*
X48500000Y-113750000D02*
G75*
G03*
X48500000Y-114750000I0J-500000D01*
G01*
X48500000Y-175250000D02*
X58750000Y-175250000D01*
X58750000Y-121250000D02*
X58750000Y-114750000D01*
X59750000Y-150250000D02*
G75*
G03*
X59250000Y-149750000I-500000J0D01*
G01*
X151250000Y-59750000D02*
X162000000Y-59750000D01*
X151250000Y-131750000D02*
G75*
G03*
X150750000Y-132250000I0J-500000D01*
G01*
X58750000Y-157250000D02*
X58750000Y-150750000D01*
X48500000Y-121250000D02*
G75*
G03*
X48500000Y-122250000I0J-500000D01*
G01*
X58750000Y-139250000D02*
X58750000Y-132750000D01*
X48500000Y-167750000D02*
X59250000Y-167750000D01*
X162000000Y-175250000D02*
X151750000Y-175250000D01*
X162000000Y-150750000D02*
G75*
G03*
X162000000Y-149750000I0J500000D01*
G01*
X162000000Y-158250000D02*
G75*
G03*
X162000000Y-157250000I0J500000D01*
G01*
X48500000Y-149750000D02*
G75*
G03*
X48500000Y-150750000I0J-500000D01*
G01*
X59250000Y-176250000D02*
G75*
G03*
X59750000Y-175750000I0J500000D01*
G01*
X48500000Y-85250000D02*
G75*
G03*
X48500000Y-86250000I0J-500000D01*
G01*
X151250000Y-167750000D02*
X162000000Y-167750000D01*
X162000000Y-85250000D02*
X151750000Y-85250000D01*
X58750000Y-103250000D02*
X58750000Y-96750000D01*
X151250000Y-59750000D02*
X162000000Y-59750000D01*
X162000000Y-132750000D02*
G75*
G03*
X162000000Y-131750000I0J500000D01*
G01*
X59750000Y-132250000D02*
X59750000Y-139750000D01*
X151250000Y-113750000D02*
X162000000Y-113750000D01*
X162000000Y-68250000D02*
X151250000Y-68250000D01*
X48500000Y-157250000D02*
X58750000Y-157250000D01*
X151750000Y-186750000D02*
X151750000Y-193250000D01*
X59250000Y-122250000D02*
G75*
G03*
X59750000Y-121750000I0J500000D01*
G01*
X59250000Y-122250000D02*
X48500000Y-122250000D01*
X48500000Y-150750000D02*
X58750000Y-150750000D01*
X162000000Y-104250000D02*
X151250000Y-104250000D01*
X162000000Y-86250000D02*
X151250000Y-86250000D01*
X162000000Y-168750000D02*
X151750000Y-168750000D01*
X162000000Y-140250000D02*
X151250000Y-140250000D01*
X162000000Y-132750000D02*
G75*
G03*
X162000000Y-131750000I0J500000D01*
G01*
X151250000Y-59750000D02*
G75*
G03*
X150750000Y-60250000I0J-500000D01*
G01*
X59750000Y-78250000D02*
X59750000Y-85750000D01*
X59250000Y-176250000D02*
G75*
G03*
X59750000Y-175750000I0J500000D01*
G01*
X151250000Y-167750000D02*
G75*
G03*
X150750000Y-168250000I0J-500000D01*
G01*
X151250000Y-149750000D02*
G75*
G03*
X150750000Y-150250000I0J-500000D01*
G01*
X59250000Y-122250000D02*
X48500000Y-122250000D01*
X48500000Y-157250000D02*
G75*
G03*
X48500000Y-158250000I0J-500000D01*
G01*
X162000000Y-186750000D02*
X151750000Y-186750000D01*
X151750000Y-168750000D02*
X151750000Y-175250000D01*
X48500000Y-103250000D02*
G75*
G03*
X48500000Y-104250000I0J-500000D01*
G01*
X151250000Y-59750000D02*
X162000000Y-59750000D01*
X59750000Y-78250000D02*
X59750000Y-85750000D01*
X151250000Y-131750000D02*
X162000000Y-131750000D01*
X48500000Y-139250000D02*
G75*
G03*
X48500000Y-140250000I0J-500000D01*
G01*
X150750000Y-85750000D02*
X150750000Y-78250000D01*
X158250000Y-201750000D02*
G75*
G03*
X158250000Y-200750000I0J500000D01*
G01*
X150750000Y-103750000D02*
G75*
G03*
X151250000Y-104250000I500000J0D01*
G01*
X48500000Y-103250000D02*
G75*
G03*
X48500000Y-104250000I0J-500000D01*
G01*
X118250000Y-196250000D02*
X96250000Y-196250000D01*
X59250000Y-158250000D02*
G75*
G03*
X59750000Y-157750000I0J500000D01*
G01*
X48500000Y-132750000D02*
X58750000Y-132750000D01*
X162000000Y-121250000D02*
X151750000Y-121250000D01*
X59750000Y-186250000D02*
X59750000Y-193750000D01*
X162000000Y-104250000D02*
G75*
G03*
X162000000Y-103250000I0J500000D01*
G01*
X59250000Y-176250000D02*
X48500000Y-176250000D01*
X150750000Y-67750000D02*
X150750000Y-60250000D01*
X48500000Y-121250000D02*
X58750000Y-121250000D01*
X58750000Y-85250000D02*
X58750000Y-78750000D01*
X48500000Y-139250000D02*
G75*
G03*
X48500000Y-140250000I0J-500000D01*
G01*
X59250000Y-86250000D02*
G75*
G03*
X59750000Y-85750000I0J500000D01*
G01*
X59750000Y-150250000D02*
G75*
G03*
X59250000Y-149750000I-500000J0D01*
G01*
X48500000Y-157250000D02*
G75*
G03*
X48500000Y-158250000I0J-500000D01*
G01*
X151250000Y-185750000D02*
G75*
G03*
X150750000Y-186250000I0J-500000D01*
G01*
X162000000Y-68250000D02*
G75*
G03*
X162000000Y-67250000I0J500000D01*
G01*
X162000000Y-122250000D02*
G75*
G03*
X162000000Y-121250000I0J500000D01*
G01*
X59250000Y-194250000D02*
G75*
G03*
X59750000Y-193750000I0J500000D01*
G01*
X59750000Y-60250000D02*
X59750000Y-67750000D01*
X151250000Y-77750000D02*
G75*
G03*
X150750000Y-78250000I0J-500000D01*
G01*
X151250000Y-95750000D02*
X162000000Y-95750000D01*
X48500000Y-67250000D02*
G75*
G03*
X48500000Y-68250000I0J-500000D01*
G01*
X162000000Y-140250000D02*
G75*
G03*
X162000000Y-139250000I0J500000D01*
G01*
X48500000Y-168750000D02*
X58750000Y-168750000D01*
X150750000Y-103750000D02*
X150750000Y-96250000D01*
X59250000Y-122250000D02*
G75*
G03*
X59750000Y-121750000I0J500000D01*
G01*
X48500000Y-149750000D02*
X59250000Y-149750000D01*
X151750000Y-96750000D02*
X151750000Y-103250000D01*
X59750000Y-186250000D02*
X59750000Y-193750000D01*
X162000000Y-140250000D02*
G75*
G03*
X162000000Y-139250000I0J500000D01*
G01*
X59250000Y-140250000D02*
G75*
G03*
X59750000Y-139750000I0J500000D01*
G01*
X48500000Y-193250000D02*
G75*
G03*
X48500000Y-194250000I0J-500000D01*
G01*
X48500000Y-157250000D02*
X58750000Y-157250000D01*
X151250000Y-185750000D02*
X162000000Y-185750000D01*
X162000000Y-114750000D02*
X151750000Y-114750000D01*
X151750000Y-78750000D02*
X151750000Y-85250000D01*
X123750000Y-200750000D02*
X158250000Y-200750000D01*
X162000000Y-139250000D02*
X151750000Y-139250000D01*
X162000000Y-67250000D02*
X151750000Y-67250000D01*
X59250000Y-104250000D02*
G75*
G03*
X59750000Y-103750000I0J500000D01*
G01*
X58750000Y-121250000D02*
X58750000Y-114750000D01*
X59750000Y-96250000D02*
X59750000Y-103750000D01*
X162000000Y-68250000D02*
G75*
G03*
X162000000Y-67250000I0J500000D01*
G01*
X162000000Y-168750000D02*
G75*
G03*
X162000000Y-167750000I0J500000D01*
G01*
X48500000Y-139250000D02*
G75*
G03*
X48500000Y-140250000I0J-500000D01*
G01*
X59250000Y-140250000D02*
G75*
G03*
X59750000Y-139750000I0J500000D01*
G01*
X162000000Y-176250000D02*
X151250000Y-176250000D01*
X162000000Y-157250000D02*
X151750000Y-157250000D01*
X151750000Y-150750000D02*
X151750000Y-157250000D01*
X150750000Y-157750000D02*
X150750000Y-150250000D01*
X48500000Y-175250000D02*
G75*
G03*
X48500000Y-176250000I0J-500000D01*
G01*
X150750000Y-103750000D02*
G75*
G03*
X151250000Y-104250000I500000J0D01*
G01*
X59250000Y-158250000D02*
G75*
G03*
X59750000Y-157750000I0J500000D01*
G01*
X150750000Y-157750000D02*
X150750000Y-150250000D01*
X162000000Y-103250000D02*
X151750000Y-103250000D01*
X59750000Y-114250000D02*
X59750000Y-121750000D01*
X48500000Y-95750000D02*
X59250000Y-95750000D01*
X162000000Y-96750000D02*
X151750000Y-96750000D01*
X150750000Y-139750000D02*
G75*
G03*
X151250000Y-140250000I500000J0D01*
G01*
X59250000Y-86250000D02*
X48500000Y-86250000D01*
X48500000Y-113750000D02*
X59250000Y-113750000D01*
X151250000Y-77750000D02*
G75*
G03*
X150750000Y-78250000I0J-500000D01*
G01*
X162000000Y-114750000D02*
G75*
G03*
X162000000Y-113750000I0J500000D01*
G01*
X59750000Y-78250000D02*
G75*
G03*
X59250000Y-77750000I-500000J0D01*
G01*
X48500000Y-185750000D02*
X59250000Y-185750000D01*
X162000000Y-150750000D02*
X151750000Y-150750000D01*
X59750000Y-96250000D02*
G75*
G03*
X59250000Y-95750000I-500000J0D01*
G01*
X59750000Y-78250000D02*
G75*
G03*
X59250000Y-77750000I-500000J0D01*
G01*
X150750000Y-67750000D02*
X150750000Y-60250000D01*
X151250000Y-149750000D02*
X162000000Y-149750000D01*
X150750000Y-139750000D02*
X150750000Y-132250000D01*
X59250000Y-176250000D02*
G75*
G03*
X59750000Y-175750000I0J500000D01*
G01*
X150750000Y-121750000D02*
G75*
G03*
X151250000Y-122250000I500000J0D01*
G01*
X151750000Y-168750000D02*
X151750000Y-175250000D01*
X151250000Y-149750000D02*
X162000000Y-149750000D01*
X162000000Y-68250000D02*
G75*
G03*
X162000000Y-67250000I0J500000D01*
G01*
X48500000Y-77750000D02*
G75*
G03*
X48500000Y-78750000I0J-500000D01*
G01*
X151750000Y-114750000D02*
X151750000Y-121250000D01*
X59250000Y-194250000D02*
X48500000Y-194250000D01*
X48500000Y-67250000D02*
X58750000Y-67250000D01*
X59750000Y-132250000D02*
X59750000Y-139750000D01*
X48500000Y-139250000D02*
X58750000Y-139250000D01*
X162000000Y-194250000D02*
G75*
G03*
X162000000Y-193250000I0J500000D01*
G01*
X162000000Y-150750000D02*
X151750000Y-150750000D01*
X162000000Y-114750000D02*
G75*
G03*
X162000000Y-113750000I0J500000D01*
G01*
X48500000Y-121250000D02*
G75*
G03*
X48500000Y-122250000I0J-500000D01*
G01*
X48500000Y-77750000D02*
G75*
G03*
X48500000Y-78750000I0J-500000D01*
G01*
X162000000Y-150750000D02*
G75*
G03*
X162000000Y-149750000I0J500000D01*
G01*
X162000000Y-158250000D02*
G75*
G03*
X162000000Y-157250000I0J500000D01*
G01*
X48500000Y-167750000D02*
G75*
G03*
X48500000Y-168750000I0J-500000D01*
G01*
X59250000Y-140250000D02*
G75*
G03*
X59750000Y-139750000I0J500000D01*
G01*
X150750000Y-175750000D02*
G75*
G03*
X151250000Y-176250000I500000J0D01*
G01*
X162000000Y-60750000D02*
G75*
G03*
X162000000Y-59750000I0J500000D01*
G01*
X48500000Y-186750000D02*
X58750000Y-186750000D01*
X59250000Y-194250000D02*
X48500000Y-194250000D01*
X151250000Y-95750000D02*
G75*
G03*
X150750000Y-96250000I0J-500000D01*
G01*
X48500000Y-103250000D02*
X58750000Y-103250000D01*
X59750000Y-186250000D02*
G75*
G03*
X59250000Y-185750000I-500000J0D01*
G01*
X48500000Y-157250000D02*
G75*
G03*
X48500000Y-158250000I0J-500000D01*
G01*
X151250000Y-185750000D02*
X162000000Y-185750000D01*
X59750000Y-168250000D02*
X59750000Y-175750000D01*
X59750000Y-114250000D02*
X59750000Y-121750000D01*
X58750000Y-139250000D02*
X58750000Y-132750000D01*
X162000000Y-157250000D02*
X151750000Y-157250000D01*
X162000000Y-194250000D02*
X151250000Y-194250000D01*
X48500000Y-85250000D02*
X58750000Y-85250000D01*
X151250000Y-77750000D02*
X162000000Y-77750000D01*
X162000000Y-85250000D02*
X151750000Y-85250000D01*
X58750000Y-175250000D02*
X58750000Y-168750000D01*
X48500000Y-193250000D02*
X58750000Y-193250000D01*
X150750000Y-175750000D02*
X150750000Y-168250000D01*
X59750000Y-132250000D02*
G75*
G03*
X59250000Y-131750000I-500000J0D01*
G01*
X150750000Y-193750000D02*
X150750000Y-186250000D01*
X162000000Y-150750000D02*
X151750000Y-150750000D01*
X150750000Y-175750000D02*
X150750000Y-168250000D01*
X151250000Y-167750000D02*
G75*
G03*
X150750000Y-168250000I0J-500000D01*
G01*
X150750000Y-67750000D02*
G75*
G03*
X151250000Y-68250000I500000J0D01*
G01*
X59250000Y-104250000D02*
G75*
G03*
X59750000Y-103750000I0J500000D01*
G01*
X162000000Y-86250000D02*
G75*
G03*
X162000000Y-85250000I0J500000D01*
G01*
X162000000Y-193250000D02*
X151750000Y-193250000D01*
X151250000Y-149750000D02*
G75*
G03*
X150750000Y-150250000I0J-500000D01*
G01*
X162000000Y-194250000D02*
X151250000Y-194250000D01*
X48500000Y-121250000D02*
G75*
G03*
X48500000Y-122250000I0J-500000D01*
G01*
X59250000Y-68250000D02*
G75*
G03*
X59750000Y-67750000I0J500000D01*
G01*
X59750000Y-150250000D02*
X59750000Y-157750000D01*
X150750000Y-193750000D02*
G75*
G03*
X151250000Y-194250000I500000J0D01*
G01*
X151250000Y-113750000D02*
G75*
G03*
X150750000Y-114250000I0J-500000D01*
G01*
X48500000Y-157250000D02*
X58750000Y-157250000D01*
X48500000Y-85250000D02*
X58750000Y-85250000D01*
X162000000Y-60750000D02*
G75*
G03*
X162000000Y-59750000I0J500000D01*
G01*
X59250000Y-158250000D02*
X48500000Y-158250000D01*
X48500000Y-113750000D02*
X59250000Y-113750000D01*
X59250000Y-158250000D02*
X48500000Y-158250000D01*
X59750000Y-168250000D02*
X59750000Y-175750000D01*
X58750000Y-193250000D02*
X58750000Y-186750000D01*
X48500000Y-175250000D02*
G75*
G03*
X48500000Y-176250000I0J-500000D01*
G01*
X48500000Y-85250000D02*
G75*
G03*
X48500000Y-86250000I0J-500000D01*
G01*
X151750000Y-96750000D02*
X151750000Y-103250000D01*
X162000000Y-78750000D02*
G75*
G03*
X162000000Y-77750000I0J500000D01*
G01*
X151250000Y-149750000D02*
X162000000Y-149750000D01*
X48500000Y-185750000D02*
G75*
G03*
X48500000Y-186750000I0J-500000D01*
G01*
X58750000Y-175250000D02*
X58750000Y-168750000D01*
X48500000Y-78750000D02*
X58750000Y-78750000D01*
X150750000Y-139750000D02*
G75*
G03*
X151250000Y-140250000I500000J0D01*
G01*
X48500000Y-168750000D02*
X58750000Y-168750000D01*
X59750000Y-96250000D02*
X59750000Y-103750000D01*
X59250000Y-104250000D02*
X48500000Y-104250000D01*
X58750000Y-103250000D02*
X58750000Y-96750000D01*
X48500000Y-167750000D02*
X59250000Y-167750000D01*
X52750000Y-199750000D02*
X89750000Y-199750000D01*
X58750000Y-139250000D02*
X58750000Y-132750000D01*
X162000000Y-104250000D02*
G75*
G03*
X162000000Y-103250000I0J500000D01*
G01*
X162000000Y-104250000D02*
X151250000Y-104250000D01*
X162000000Y-86250000D02*
X151250000Y-86250000D01*
M02*
