%TF.GenerationSoftware,KiCad,Pcbnew,(6.0.7-1)-1*%
%TF.CreationDate,2023-01-13T01:44:41+01:00*%
%TF.ProjectId,Astraveus_Testtech,41737472-6176-4657-9573-5f5465737474,0.1*%
%TF.SameCoordinates,Original*%
%TF.FileFunction,Paste,Top*%
%TF.FilePolarity,Positive*%
%FSLAX46Y46*%
G04 Gerber Fmt 4.6, Leading zero omitted, Abs format (unit mm)*
G04 Created by KiCad (PCBNEW (6.0.7-1)-1) date 2023-01-13 01:44:41*
%MOMM*%
%LPD*%
G01*
G04 APERTURE LIST*
G04 Aperture macros list*
%AMRoundRect*
0 Rectangle with rounded corners*
0 $1 Rounding radius*
0 $2 $3 $4 $5 $6 $7 $8 $9 X,Y pos of 4 corners*
0 Add a 4 corners polygon primitive as box body*
4,1,4,$2,$3,$4,$5,$6,$7,$8,$9,$2,$3,0*
0 Add four circle primitives for the rounded corners*
1,1,$1+$1,$2,$3*
1,1,$1+$1,$4,$5*
1,1,$1+$1,$6,$7*
1,1,$1+$1,$8,$9*
0 Add four rect primitives between the rounded corners*
20,1,$1+$1,$2,$3,$4,$5,0*
20,1,$1+$1,$4,$5,$6,$7,0*
20,1,$1+$1,$6,$7,$8,$9,0*
20,1,$1+$1,$8,$9,$2,$3,0*%
G04 Aperture macros list end*
%ADD10RoundRect,0.225000X-0.225000X-0.250000X0.225000X-0.250000X0.225000X0.250000X-0.225000X0.250000X0*%
%ADD11RoundRect,0.225000X0.250000X-0.225000X0.250000X0.225000X-0.250000X0.225000X-0.250000X-0.225000X0*%
%ADD12RoundRect,0.200000X0.200000X0.275000X-0.200000X0.275000X-0.200000X-0.275000X0.200000X-0.275000X0*%
%ADD13RoundRect,0.225000X-0.250000X0.225000X-0.250000X-0.225000X0.250000X-0.225000X0.250000X0.225000X0*%
%ADD14RoundRect,0.218750X-0.218750X-0.256250X0.218750X-0.256250X0.218750X0.256250X-0.218750X0.256250X0*%
%ADD15RoundRect,0.218750X0.218750X0.256250X-0.218750X0.256250X-0.218750X-0.256250X0.218750X-0.256250X0*%
%ADD16RoundRect,0.200000X-0.200000X-0.275000X0.200000X-0.275000X0.200000X0.275000X-0.200000X0.275000X0*%
%ADD17RoundRect,0.150000X-0.150000X0.587500X-0.150000X-0.587500X0.150000X-0.587500X0.150000X0.587500X0*%
%ADD18RoundRect,0.225000X0.225000X0.250000X-0.225000X0.250000X-0.225000X-0.250000X0.225000X-0.250000X0*%
%ADD19RoundRect,0.100000X-0.100000X0.637500X-0.100000X-0.637500X0.100000X-0.637500X0.100000X0.637500X0*%
%ADD20RoundRect,0.150000X0.150000X-0.587500X0.150000X0.587500X-0.150000X0.587500X-0.150000X-0.587500X0*%
%ADD21RoundRect,0.100000X0.100000X-0.637500X0.100000X0.637500X-0.100000X0.637500X-0.100000X-0.637500X0*%
%ADD22R,1.800000X2.500000*%
%ADD23RoundRect,0.150000X-0.825000X-0.150000X0.825000X-0.150000X0.825000X0.150000X-0.825000X0.150000X0*%
%ADD24R,1.400000X1.200000*%
%ADD25R,1.500000X2.000000*%
%ADD26R,3.800000X2.000000*%
%ADD27RoundRect,0.150000X-0.512500X-0.150000X0.512500X-0.150000X0.512500X0.150000X-0.512500X0.150000X0*%
%ADD28RoundRect,0.075000X-0.075000X0.662500X-0.075000X-0.662500X0.075000X-0.662500X0.075000X0.662500X0*%
%ADD29RoundRect,0.075000X-0.662500X0.075000X-0.662500X-0.075000X0.662500X-0.075000X0.662500X0.075000X0*%
G04 APERTURE END LIST*
D10*
%TO.C,C14*%
X126300000Y-86650000D03*
X127850000Y-86650000D03*
%TD*%
D11*
%TO.C,C85*%
X119718750Y-172787500D03*
X119718750Y-171237500D03*
%TD*%
D12*
%TO.C,R75*%
X67325000Y-153250000D03*
X65675000Y-153250000D03*
%TD*%
%TO.C,R39*%
X123293750Y-165012500D03*
X121643750Y-165012500D03*
%TD*%
%TO.C,R66*%
X65875000Y-125000000D03*
X64225000Y-125000000D03*
%TD*%
D11*
%TO.C,C11*%
X105000000Y-69475000D03*
X105000000Y-67925000D03*
%TD*%
D13*
%TO.C,C70*%
X90779879Y-165725000D03*
X90779879Y-167275000D03*
%TD*%
D14*
%TO.C,D2*%
X100712500Y-59250000D03*
X102287500Y-59250000D03*
%TD*%
D15*
%TO.C,D29*%
X69037500Y-179000000D03*
X67462500Y-179000000D03*
%TD*%
D16*
%TO.C,R8*%
X87204879Y-107750000D03*
X88854879Y-107750000D03*
%TD*%
D11*
%TO.C,C73*%
X119718750Y-167287500D03*
X119718750Y-165737500D03*
%TD*%
D16*
%TO.C,R80*%
X144625000Y-165000000D03*
X146275000Y-165000000D03*
%TD*%
D17*
%TO.C,Q8*%
X144950000Y-121312500D03*
X143050000Y-121312500D03*
X144000000Y-123187500D03*
%TD*%
D12*
%TO.C,R17*%
X123293750Y-110762500D03*
X121643750Y-110762500D03*
%TD*%
D11*
%TO.C,C9*%
X117750000Y-61025000D03*
X117750000Y-59475000D03*
%TD*%
D12*
%TO.C,R35*%
X123293750Y-146762500D03*
X121643750Y-146762500D03*
%TD*%
D11*
%TO.C,C3*%
X100250000Y-67750000D03*
X100250000Y-66200000D03*
%TD*%
D13*
%TO.C,C49*%
X90779879Y-138475000D03*
X90779879Y-140025000D03*
%TD*%
D15*
%TO.C,D33*%
X69037500Y-197000000D03*
X67462500Y-197000000D03*
%TD*%
D16*
%TO.C,R6*%
X87204879Y-101500000D03*
X88854879Y-101500000D03*
%TD*%
D12*
%TO.C,R55*%
X67325000Y-63250000D03*
X65675000Y-63250000D03*
%TD*%
D16*
%TO.C,R24*%
X87204879Y-137500000D03*
X88854879Y-137500000D03*
%TD*%
%TO.C,R49*%
X87204879Y-188500000D03*
X88854879Y-188500000D03*
%TD*%
D12*
%TO.C,R40*%
X123293750Y-162012500D03*
X121643750Y-162012500D03*
%TD*%
D16*
%TO.C,R73*%
X143175000Y-136750000D03*
X144825000Y-136750000D03*
%TD*%
D12*
%TO.C,R70*%
X65875000Y-143000000D03*
X64225000Y-143000000D03*
%TD*%
D11*
%TO.C,C65*%
X119718750Y-148787500D03*
X119718750Y-147237500D03*
%TD*%
D16*
%TO.C,R2*%
X111662500Y-59175000D03*
X113312500Y-59175000D03*
%TD*%
D18*
%TO.C,C4*%
X94250000Y-65735000D03*
X92700000Y-65735000D03*
%TD*%
D12*
%TO.C,R27*%
X123293750Y-141012500D03*
X121643750Y-141012500D03*
%TD*%
D19*
%TO.C,U5*%
X97979879Y-100637500D03*
X97329879Y-100637500D03*
X96679879Y-100637500D03*
X96029879Y-100637500D03*
X95379879Y-100637500D03*
X94729879Y-100637500D03*
X94079879Y-100637500D03*
X94079879Y-106362500D03*
X94729879Y-106362500D03*
X95379879Y-106362500D03*
X96029879Y-106362500D03*
X96679879Y-106362500D03*
X97329879Y-106362500D03*
X97979879Y-106362500D03*
%TD*%
D14*
%TO.C,D11*%
X141462500Y-75000000D03*
X143037500Y-75000000D03*
%TD*%
D20*
%TO.C,Q1*%
X65550000Y-60687500D03*
X67450000Y-60687500D03*
X66500000Y-58812500D03*
%TD*%
D13*
%TO.C,C40*%
X90779879Y-129725000D03*
X90779879Y-131275000D03*
%TD*%
D10*
%TO.C,C57*%
X90725000Y-157000000D03*
X92275000Y-157000000D03*
%TD*%
D16*
%TO.C,R64*%
X144625000Y-93000000D03*
X146275000Y-93000000D03*
%TD*%
D12*
%TO.C,R29*%
X123293750Y-134762500D03*
X121643750Y-134762500D03*
%TD*%
D11*
%TO.C,C44*%
X119718750Y-128037500D03*
X119718750Y-126487500D03*
%TD*%
D16*
%TO.C,R37*%
X87204879Y-164500000D03*
X88854879Y-164500000D03*
%TD*%
D20*
%TO.C,Q15*%
X65550000Y-186687500D03*
X67450000Y-186687500D03*
X66500000Y-184812500D03*
%TD*%
D21*
%TO.C,U10*%
X112518750Y-129875000D03*
X113168750Y-129875000D03*
X113818750Y-129875000D03*
X114468750Y-129875000D03*
X115118750Y-129875000D03*
X115768750Y-129875000D03*
X116418750Y-129875000D03*
X116418750Y-124150000D03*
X115768750Y-124150000D03*
X115118750Y-124150000D03*
X114468750Y-124150000D03*
X113818750Y-124150000D03*
X113168750Y-124150000D03*
X112518750Y-124150000D03*
%TD*%
D11*
%TO.C,C23*%
X119718750Y-107287500D03*
X119718750Y-105737500D03*
%TD*%
D18*
%TO.C,C72*%
X119773629Y-157512500D03*
X118223629Y-157512500D03*
%TD*%
D11*
%TO.C,C54*%
X119718750Y-140037500D03*
X119718750Y-138487500D03*
%TD*%
D10*
%TO.C,C17*%
X90725000Y-109000000D03*
X92275000Y-109000000D03*
%TD*%
D18*
%TO.C,C36*%
X97554879Y-122750000D03*
X96004879Y-122750000D03*
%TD*%
D12*
%TO.C,R28*%
X123293750Y-138012500D03*
X121643750Y-138012500D03*
%TD*%
%TO.C,R58*%
X65875000Y-89000000D03*
X64225000Y-89000000D03*
%TD*%
D14*
%TO.C,D3*%
X100712500Y-57250000D03*
X102287500Y-57250000D03*
%TD*%
D19*
%TO.C,U15*%
X97979879Y-160637500D03*
X97329879Y-160637500D03*
X96679879Y-160637500D03*
X96029879Y-160637500D03*
X95379879Y-160637500D03*
X94729879Y-160637500D03*
X94079879Y-160637500D03*
X94079879Y-166362500D03*
X94729879Y-166362500D03*
X95379879Y-166362500D03*
X96029879Y-166362500D03*
X96679879Y-166362500D03*
X97329879Y-166362500D03*
X97979879Y-166362500D03*
%TD*%
D18*
%TO.C,C7*%
X126275000Y-74500000D03*
X124725000Y-74500000D03*
%TD*%
D12*
%TO.C,R82*%
X65875000Y-197000000D03*
X64225000Y-197000000D03*
%TD*%
D11*
%TO.C,C75*%
X119718750Y-160787500D03*
X119718750Y-159237500D03*
%TD*%
D10*
%TO.C,C37*%
X90725000Y-133000000D03*
X92275000Y-133000000D03*
%TD*%
%TO.C,C41*%
X112943750Y-131762500D03*
X114493750Y-131762500D03*
%TD*%
D13*
%TO.C,C69*%
X90779879Y-162475000D03*
X90779879Y-164025000D03*
%TD*%
%TO.C,C59*%
X90779879Y-150475000D03*
X90779879Y-152025000D03*
%TD*%
D12*
%TO.C,R83*%
X67325000Y-189250000D03*
X65675000Y-189250000D03*
%TD*%
D22*
%TO.C,D10*%
X147800000Y-84750000D03*
X147800000Y-88750000D03*
%TD*%
%TO.C,D18*%
X147800000Y-120750000D03*
X147800000Y-124750000D03*
%TD*%
D18*
%TO.C,C10*%
X107500000Y-65950000D03*
X105950000Y-65950000D03*
%TD*%
D22*
%TO.C,D34*%
X147800000Y-192750000D03*
X147800000Y-196750000D03*
%TD*%
D20*
%TO.C,Q3*%
X65550000Y-78687500D03*
X67450000Y-78687500D03*
X66500000Y-76812500D03*
%TD*%
D16*
%TO.C,R65*%
X143175000Y-100750000D03*
X144825000Y-100750000D03*
%TD*%
%TO.C,R81*%
X143175000Y-172750000D03*
X144825000Y-172750000D03*
%TD*%
D22*
%TO.C,D6*%
X147800000Y-66750000D03*
X147800000Y-70750000D03*
%TD*%
D19*
%TO.C,U17*%
X97979879Y-172637500D03*
X97329879Y-172637500D03*
X96679879Y-172637500D03*
X96029879Y-172637500D03*
X95379879Y-172637500D03*
X94729879Y-172637500D03*
X94079879Y-172637500D03*
X94079879Y-178362500D03*
X94729879Y-178362500D03*
X95379879Y-178362500D03*
X96029879Y-178362500D03*
X96679879Y-178362500D03*
X97329879Y-178362500D03*
X97979879Y-178362500D03*
%TD*%
D13*
%TO.C,C1*%
X102000000Y-67475000D03*
X102000000Y-69025000D03*
%TD*%
D16*
%TO.C,R30*%
X87204879Y-149500000D03*
X88854879Y-149500000D03*
%TD*%
D18*
%TO.C,C42*%
X119773629Y-121512500D03*
X118223629Y-121512500D03*
%TD*%
D17*
%TO.C,Q16*%
X144950000Y-193312500D03*
X143050000Y-193312500D03*
X144000000Y-195187500D03*
%TD*%
D11*
%TO.C,C25*%
X119718750Y-100787500D03*
X119718750Y-99237500D03*
%TD*%
D12*
%TO.C,R45*%
X123293750Y-177012500D03*
X121643750Y-177012500D03*
%TD*%
D18*
%TO.C,C6*%
X80550000Y-68600000D03*
X79000000Y-68600000D03*
%TD*%
D16*
%TO.C,R56*%
X144625000Y-57000000D03*
X146275000Y-57000000D03*
%TD*%
D11*
%TO.C,C45*%
X119718750Y-124787500D03*
X119718750Y-123237500D03*
%TD*%
%TO.C,C24*%
X119718750Y-104037500D03*
X119718750Y-102487500D03*
%TD*%
D13*
%TO.C,C18*%
X90779879Y-99225000D03*
X90779879Y-100775000D03*
%TD*%
D17*
%TO.C,Q4*%
X144950000Y-85312500D03*
X143050000Y-85312500D03*
X144000000Y-87187500D03*
%TD*%
D22*
%TO.C,D8*%
X62700000Y-79250000D03*
X62700000Y-75250000D03*
%TD*%
D18*
%TO.C,C52*%
X119773629Y-133512500D03*
X118223629Y-133512500D03*
%TD*%
D11*
%TO.C,C33*%
X119718750Y-119287500D03*
X119718750Y-117737500D03*
%TD*%
D13*
%TO.C,C90*%
X90779879Y-189725000D03*
X90779879Y-191275000D03*
%TD*%
D10*
%TO.C,C77*%
X90725000Y-181000000D03*
X92275000Y-181000000D03*
%TD*%
D16*
%TO.C,R42*%
X87204879Y-173500000D03*
X88854879Y-173500000D03*
%TD*%
D19*
%TO.C,U19*%
X97979879Y-184637500D03*
X97329879Y-184637500D03*
X96679879Y-184637500D03*
X96029879Y-184637500D03*
X95379879Y-184637500D03*
X94729879Y-184637500D03*
X94079879Y-184637500D03*
X94079879Y-190362500D03*
X94729879Y-190362500D03*
X95379879Y-190362500D03*
X96029879Y-190362500D03*
X96679879Y-190362500D03*
X97329879Y-190362500D03*
X97979879Y-190362500D03*
%TD*%
D16*
%TO.C,R69*%
X143175000Y-118750000D03*
X144825000Y-118750000D03*
%TD*%
D13*
%TO.C,C58*%
X90779879Y-147225000D03*
X90779879Y-148775000D03*
%TD*%
D12*
%TO.C,R67*%
X67325000Y-117250000D03*
X65675000Y-117250000D03*
%TD*%
%TO.C,R59*%
X67325000Y-81250000D03*
X65675000Y-81250000D03*
%TD*%
D13*
%TO.C,C12*%
X120800000Y-88900000D03*
X120800000Y-90450000D03*
%TD*%
D20*
%TO.C,Q13*%
X65550000Y-168687500D03*
X67450000Y-168687500D03*
X66500000Y-166812500D03*
%TD*%
D13*
%TO.C,C20*%
X90779879Y-105725000D03*
X90779879Y-107275000D03*
%TD*%
D11*
%TO.C,C34*%
X119718750Y-116037500D03*
X119718750Y-114487500D03*
%TD*%
D17*
%TO.C,Q6*%
X144950000Y-103312500D03*
X143050000Y-103312500D03*
X144000000Y-105187500D03*
%TD*%
D16*
%TO.C,R18*%
X87204879Y-125500000D03*
X88854879Y-125500000D03*
%TD*%
D20*
%TO.C,Q5*%
X65550000Y-96687500D03*
X67450000Y-96687500D03*
X66500000Y-94812500D03*
%TD*%
D10*
%TO.C,C51*%
X112943750Y-143762500D03*
X114493750Y-143762500D03*
%TD*%
D18*
%TO.C,C15*%
X124575000Y-86650000D03*
X123025000Y-86650000D03*
%TD*%
D14*
%TO.C,D1*%
X100712500Y-61250000D03*
X102287500Y-61250000D03*
%TD*%
D13*
%TO.C,C28*%
X90779879Y-111225000D03*
X90779879Y-112775000D03*
%TD*%
D12*
%TO.C,R53*%
X123293750Y-182762500D03*
X121643750Y-182762500D03*
%TD*%
%TO.C,R16*%
X123293750Y-114012500D03*
X121643750Y-114012500D03*
%TD*%
D22*
%TO.C,D14*%
X147800000Y-102750000D03*
X147800000Y-106750000D03*
%TD*%
D10*
%TO.C,C47*%
X90725000Y-145000000D03*
X92275000Y-145000000D03*
%TD*%
D12*
%TO.C,R74*%
X65875000Y-161000000D03*
X64225000Y-161000000D03*
%TD*%
D18*
%TO.C,C86*%
X97554879Y-182750000D03*
X96004879Y-182750000D03*
%TD*%
D16*
%TO.C,R14*%
X87204879Y-119750000D03*
X88854879Y-119750000D03*
%TD*%
%TO.C,R12*%
X87204879Y-113500000D03*
X88854879Y-113500000D03*
%TD*%
%TO.C,R76*%
X144625000Y-147000000D03*
X146275000Y-147000000D03*
%TD*%
D15*
%TO.C,D13*%
X69037500Y-107000000D03*
X67462500Y-107000000D03*
%TD*%
D21*
%TO.C,U8*%
X112518750Y-117875000D03*
X113168750Y-117875000D03*
X113818750Y-117875000D03*
X114468750Y-117875000D03*
X115118750Y-117875000D03*
X115768750Y-117875000D03*
X116418750Y-117875000D03*
X116418750Y-112150000D03*
X115768750Y-112150000D03*
X115118750Y-112150000D03*
X114468750Y-112150000D03*
X113818750Y-112150000D03*
X113168750Y-112150000D03*
X112518750Y-112150000D03*
%TD*%
D19*
%TO.C,U9*%
X97979879Y-124637500D03*
X97329879Y-124637500D03*
X96679879Y-124637500D03*
X96029879Y-124637500D03*
X95379879Y-124637500D03*
X94729879Y-124637500D03*
X94079879Y-124637500D03*
X94079879Y-130362500D03*
X94729879Y-130362500D03*
X95379879Y-130362500D03*
X96029879Y-130362500D03*
X96679879Y-130362500D03*
X97329879Y-130362500D03*
X97979879Y-130362500D03*
%TD*%
D12*
%TO.C,R63*%
X67325000Y-99250000D03*
X65675000Y-99250000D03*
%TD*%
D18*
%TO.C,C66*%
X97554879Y-158750000D03*
X96004879Y-158750000D03*
%TD*%
D22*
%TO.C,D16*%
X62700000Y-115250000D03*
X62700000Y-111250000D03*
%TD*%
D12*
%TO.C,R78*%
X65875000Y-179000000D03*
X64225000Y-179000000D03*
%TD*%
%TO.C,R47*%
X123293750Y-170762500D03*
X121643750Y-170762500D03*
%TD*%
D18*
%TO.C,C82*%
X119773629Y-169512500D03*
X118223629Y-169512500D03*
%TD*%
D11*
%TO.C,C93*%
X119718750Y-191287500D03*
X119718750Y-189737500D03*
%TD*%
D20*
%TO.C,Q7*%
X65550000Y-114687500D03*
X67450000Y-114687500D03*
X66500000Y-112812500D03*
%TD*%
D16*
%TO.C,R84*%
X144625000Y-183000000D03*
X146275000Y-183000000D03*
%TD*%
D18*
%TO.C,C32*%
X119773629Y-109512500D03*
X118223629Y-109512500D03*
%TD*%
D15*
%TO.C,D9*%
X69037500Y-89000000D03*
X67462500Y-89000000D03*
%TD*%
D17*
%TO.C,Q10*%
X144950000Y-139312500D03*
X143050000Y-139312500D03*
X144000000Y-141187500D03*
%TD*%
D18*
%TO.C,C62*%
X119773629Y-145512500D03*
X118223629Y-145512500D03*
%TD*%
D13*
%TO.C,C48*%
X90779879Y-135225000D03*
X90779879Y-136775000D03*
%TD*%
%TO.C,C19*%
X90779879Y-102475000D03*
X90779879Y-104025000D03*
%TD*%
D11*
%TO.C,C5*%
X76300000Y-72375000D03*
X76300000Y-70825000D03*
%TD*%
D13*
%TO.C,C29*%
X90779879Y-114475000D03*
X90779879Y-116025000D03*
%TD*%
D11*
%TO.C,C53*%
X119718750Y-143287500D03*
X119718750Y-141737500D03*
%TD*%
D10*
%TO.C,C31*%
X112943750Y-119762500D03*
X114493750Y-119762500D03*
%TD*%
D16*
%TO.C,R38*%
X87204879Y-167750000D03*
X88854879Y-167750000D03*
%TD*%
D23*
%TO.C,U2*%
X112262500Y-63055000D03*
X112262500Y-64325000D03*
X112262500Y-65595000D03*
X112262500Y-66865000D03*
X112262500Y-68135000D03*
X112262500Y-69405000D03*
X112262500Y-70675000D03*
X112262500Y-71945000D03*
X117212500Y-71945000D03*
X117212500Y-70675000D03*
X117212500Y-69405000D03*
X117212500Y-68135000D03*
X117212500Y-66865000D03*
X117212500Y-65595000D03*
X117212500Y-64325000D03*
X117212500Y-63055000D03*
%TD*%
D22*
%TO.C,D20*%
X62700000Y-133250000D03*
X62700000Y-129250000D03*
%TD*%
D11*
%TO.C,C43*%
X119718750Y-131287500D03*
X119718750Y-129737500D03*
%TD*%
%TO.C,C8*%
X109250000Y-64525000D03*
X109250000Y-62975000D03*
%TD*%
D16*
%TO.C,R36*%
X87204879Y-161500000D03*
X88854879Y-161500000D03*
%TD*%
D11*
%TO.C,C64*%
X119718750Y-152037500D03*
X119718750Y-150487500D03*
%TD*%
D16*
%TO.C,R5*%
X95425000Y-57250000D03*
X97075000Y-57250000D03*
%TD*%
D19*
%TO.C,U7*%
X97979879Y-112637500D03*
X97329879Y-112637500D03*
X96679879Y-112637500D03*
X96029879Y-112637500D03*
X95379879Y-112637500D03*
X94729879Y-112637500D03*
X94079879Y-112637500D03*
X94079879Y-118362500D03*
X94729879Y-118362500D03*
X95379879Y-118362500D03*
X96029879Y-118362500D03*
X96679879Y-118362500D03*
X97329879Y-118362500D03*
X97979879Y-118362500D03*
%TD*%
D18*
%TO.C,C56*%
X97554879Y-146750000D03*
X96004879Y-146750000D03*
%TD*%
D10*
%TO.C,C87*%
X90725000Y-193000000D03*
X92275000Y-193000000D03*
%TD*%
D19*
%TO.C,U13*%
X97979879Y-148637500D03*
X97329879Y-148637500D03*
X96679879Y-148637500D03*
X96029879Y-148637500D03*
X95379879Y-148637500D03*
X94729879Y-148637500D03*
X94079879Y-148637500D03*
X94079879Y-154362500D03*
X94729879Y-154362500D03*
X95379879Y-154362500D03*
X96029879Y-154362500D03*
X96679879Y-154362500D03*
X97329879Y-154362500D03*
X97979879Y-154362500D03*
%TD*%
D22*
%TO.C,D22*%
X147800000Y-138750000D03*
X147800000Y-142750000D03*
%TD*%
D11*
%TO.C,C83*%
X119718750Y-179287500D03*
X119718750Y-177737500D03*
%TD*%
D20*
%TO.C,Q11*%
X65550000Y-150687500D03*
X67450000Y-150687500D03*
X66500000Y-148812500D03*
%TD*%
D21*
%TO.C,U12*%
X112518750Y-141875000D03*
X113168750Y-141875000D03*
X113818750Y-141875000D03*
X114468750Y-141875000D03*
X115118750Y-141875000D03*
X115768750Y-141875000D03*
X116418750Y-141875000D03*
X116418750Y-136150000D03*
X115768750Y-136150000D03*
X115118750Y-136150000D03*
X114468750Y-136150000D03*
X113818750Y-136150000D03*
X113168750Y-136150000D03*
X112518750Y-136150000D03*
%TD*%
D15*
%TO.C,D5*%
X69037500Y-71000000D03*
X67462500Y-71000000D03*
%TD*%
D21*
%TO.C,U20*%
X112518750Y-189875000D03*
X113168750Y-189875000D03*
X113818750Y-189875000D03*
X114468750Y-189875000D03*
X115118750Y-189875000D03*
X115768750Y-189875000D03*
X116418750Y-189875000D03*
X116418750Y-184150000D03*
X115768750Y-184150000D03*
X115118750Y-184150000D03*
X114468750Y-184150000D03*
X113818750Y-184150000D03*
X113168750Y-184150000D03*
X112518750Y-184150000D03*
%TD*%
D10*
%TO.C,C71*%
X112943750Y-167762500D03*
X114493750Y-167762500D03*
%TD*%
D16*
%TO.C,R50*%
X87204879Y-191750000D03*
X88854879Y-191750000D03*
%TD*%
D22*
%TO.C,D4*%
X62700000Y-61250000D03*
X62700000Y-57250000D03*
%TD*%
D18*
%TO.C,C76*%
X97554879Y-170750000D03*
X96004879Y-170750000D03*
%TD*%
D13*
%TO.C,C60*%
X90779879Y-153725000D03*
X90779879Y-155275000D03*
%TD*%
D12*
%TO.C,R34*%
X123293750Y-150012500D03*
X121643750Y-150012500D03*
%TD*%
D21*
%TO.C,U6*%
X112518750Y-105875000D03*
X113168750Y-105875000D03*
X113818750Y-105875000D03*
X114468750Y-105875000D03*
X115118750Y-105875000D03*
X115768750Y-105875000D03*
X116418750Y-105875000D03*
X116418750Y-100150000D03*
X115768750Y-100150000D03*
X115118750Y-100150000D03*
X114468750Y-100150000D03*
X113818750Y-100150000D03*
X113168750Y-100150000D03*
X112518750Y-100150000D03*
%TD*%
D16*
%TO.C,R1*%
X111662500Y-60925000D03*
X113312500Y-60925000D03*
%TD*%
%TO.C,R13*%
X87204879Y-116500000D03*
X88854879Y-116500000D03*
%TD*%
%TO.C,R57*%
X143175000Y-64750000D03*
X144825000Y-64750000D03*
%TD*%
D20*
%TO.C,Q9*%
X65550000Y-132687500D03*
X67450000Y-132687500D03*
X66500000Y-130812500D03*
%TD*%
D16*
%TO.C,R20*%
X87204879Y-131750000D03*
X88854879Y-131750000D03*
%TD*%
%TO.C,R60*%
X144625000Y-75000000D03*
X146275000Y-75000000D03*
%TD*%
D11*
%TO.C,C13*%
X120800000Y-87150000D03*
X120800000Y-85600000D03*
%TD*%
D13*
%TO.C,C38*%
X90779879Y-123225000D03*
X90779879Y-124775000D03*
%TD*%
D11*
%TO.C,C94*%
X119718750Y-188037500D03*
X119718750Y-186487500D03*
%TD*%
D12*
%TO.C,R33*%
X123293750Y-153012500D03*
X121643750Y-153012500D03*
%TD*%
D22*
%TO.C,D12*%
X62700000Y-97250000D03*
X62700000Y-93250000D03*
%TD*%
D18*
%TO.C,C46*%
X97554879Y-134750000D03*
X96004879Y-134750000D03*
%TD*%
D12*
%TO.C,R52*%
X123293750Y-186012500D03*
X121643750Y-186012500D03*
%TD*%
D10*
%TO.C,C21*%
X112943750Y-107762500D03*
X114493750Y-107762500D03*
%TD*%
D12*
%TO.C,R51*%
X123293750Y-189012500D03*
X121643750Y-189012500D03*
%TD*%
D24*
%TO.C,Y1*%
X80750000Y-70650000D03*
X78550000Y-70650000D03*
X78550000Y-72350000D03*
X80750000Y-72350000D03*
%TD*%
D13*
%TO.C,C89*%
X90779879Y-186475000D03*
X90779879Y-188025000D03*
%TD*%
D24*
%TO.C,Y2*%
X109500000Y-67750000D03*
X107300000Y-67750000D03*
X107300000Y-69450000D03*
X109500000Y-69450000D03*
%TD*%
D14*
%TO.C,D19*%
X141462500Y-111000000D03*
X143037500Y-111000000D03*
%TD*%
D13*
%TO.C,C79*%
X90779879Y-174475000D03*
X90779879Y-176025000D03*
%TD*%
D12*
%TO.C,R10*%
X123293750Y-102012500D03*
X121643750Y-102012500D03*
%TD*%
D14*
%TO.C,D15*%
X141462500Y-93000000D03*
X143037500Y-93000000D03*
%TD*%
D10*
%TO.C,C81*%
X112943750Y-179762500D03*
X114493750Y-179762500D03*
%TD*%
D17*
%TO.C,Q12*%
X144950000Y-157312500D03*
X143050000Y-157312500D03*
X144000000Y-159187500D03*
%TD*%
D18*
%TO.C,C22*%
X119773629Y-97512500D03*
X118223629Y-97512500D03*
%TD*%
D14*
%TO.C,D23*%
X141462500Y-129000000D03*
X143037500Y-129000000D03*
%TD*%
D25*
%TO.C,U4*%
X127850000Y-89000000D03*
X125550000Y-89000000D03*
D26*
X125550000Y-95300000D03*
D25*
X123250000Y-89000000D03*
%TD*%
D22*
%TO.C,D30*%
X147800000Y-174750000D03*
X147800000Y-178750000D03*
%TD*%
D12*
%TO.C,R71*%
X67325000Y-135250000D03*
X65675000Y-135250000D03*
%TD*%
D21*
%TO.C,U14*%
X112518750Y-153875000D03*
X113168750Y-153875000D03*
X113818750Y-153875000D03*
X114468750Y-153875000D03*
X115118750Y-153875000D03*
X115768750Y-153875000D03*
X116418750Y-153875000D03*
X116418750Y-148150000D03*
X115768750Y-148150000D03*
X115118750Y-148150000D03*
X114468750Y-148150000D03*
X113818750Y-148150000D03*
X113168750Y-148150000D03*
X112518750Y-148150000D03*
%TD*%
D16*
%TO.C,R61*%
X143175000Y-82750000D03*
X144825000Y-82750000D03*
%TD*%
D11*
%TO.C,C84*%
X119718750Y-176037500D03*
X119718750Y-174487500D03*
%TD*%
D12*
%TO.C,R62*%
X65875000Y-107000000D03*
X64225000Y-107000000D03*
%TD*%
D16*
%TO.C,R44*%
X87204879Y-179750000D03*
X88854879Y-179750000D03*
%TD*%
D11*
%TO.C,C55*%
X119718750Y-136787500D03*
X119718750Y-135237500D03*
%TD*%
D16*
%TO.C,R85*%
X143175000Y-190750000D03*
X144825000Y-190750000D03*
%TD*%
%TO.C,R3*%
X95425000Y-61250000D03*
X97075000Y-61250000D03*
%TD*%
D21*
%TO.C,U18*%
X112518750Y-177875000D03*
X113168750Y-177875000D03*
X113818750Y-177875000D03*
X114468750Y-177875000D03*
X115118750Y-177875000D03*
X115768750Y-177875000D03*
X116418750Y-177875000D03*
X116418750Y-172150000D03*
X115768750Y-172150000D03*
X115118750Y-172150000D03*
X114468750Y-172150000D03*
X113818750Y-172150000D03*
X113168750Y-172150000D03*
X112518750Y-172150000D03*
%TD*%
D27*
%TO.C,U1*%
X134112500Y-74756250D03*
X134112500Y-75706250D03*
X134112500Y-76656250D03*
X136387500Y-76656250D03*
X136387500Y-75706250D03*
X136387500Y-74756250D03*
%TD*%
D14*
%TO.C,D31*%
X141462500Y-165000000D03*
X143037500Y-165000000D03*
%TD*%
D16*
%TO.C,R4*%
X95425000Y-59250000D03*
X97075000Y-59250000D03*
%TD*%
D12*
%TO.C,R22*%
X123293750Y-126012500D03*
X121643750Y-126012500D03*
%TD*%
D13*
%TO.C,C50*%
X90779879Y-141725000D03*
X90779879Y-143275000D03*
%TD*%
D16*
%TO.C,R77*%
X143175000Y-154750000D03*
X144825000Y-154750000D03*
%TD*%
D22*
%TO.C,D32*%
X62700000Y-187250000D03*
X62700000Y-183250000D03*
%TD*%
D28*
%TO.C,U3*%
X97725000Y-67822500D03*
X97225000Y-67822500D03*
X96725000Y-67822500D03*
X96225000Y-67822500D03*
X95725000Y-67822500D03*
X95225000Y-67822500D03*
X94725000Y-67822500D03*
X94225000Y-67822500D03*
X93725000Y-67822500D03*
X93225000Y-67822500D03*
X92725000Y-67822500D03*
X92225000Y-67822500D03*
X91725000Y-67822500D03*
X91225000Y-67822500D03*
X90725000Y-67822500D03*
X90225000Y-67822500D03*
X89725000Y-67822500D03*
X89225000Y-67822500D03*
X88725000Y-67822500D03*
X88225000Y-67822500D03*
X87725000Y-67822500D03*
X87225000Y-67822500D03*
X86725000Y-67822500D03*
X86225000Y-67822500D03*
X85725000Y-67822500D03*
D29*
X84062500Y-69485000D03*
X84062500Y-69985000D03*
X84062500Y-70485000D03*
X84062500Y-70985000D03*
X84062500Y-71485000D03*
X84062500Y-71985000D03*
X84062500Y-72485000D03*
X84062500Y-72985000D03*
X84062500Y-73485000D03*
X84062500Y-73985000D03*
X84062500Y-74485000D03*
X84062500Y-74985000D03*
X84062500Y-75485000D03*
X84062500Y-75985000D03*
X84062500Y-76485000D03*
X84062500Y-76985000D03*
X84062500Y-77485000D03*
X84062500Y-77985000D03*
X84062500Y-78485000D03*
X84062500Y-78985000D03*
X84062500Y-79485000D03*
X84062500Y-79985000D03*
X84062500Y-80485000D03*
X84062500Y-80985000D03*
X84062500Y-81485000D03*
D28*
X85725000Y-83147500D03*
X86225000Y-83147500D03*
X86725000Y-83147500D03*
X87225000Y-83147500D03*
X87725000Y-83147500D03*
X88225000Y-83147500D03*
X88725000Y-83147500D03*
X89225000Y-83147500D03*
X89725000Y-83147500D03*
X90225000Y-83147500D03*
X90725000Y-83147500D03*
X91225000Y-83147500D03*
X91725000Y-83147500D03*
X92225000Y-83147500D03*
X92725000Y-83147500D03*
X93225000Y-83147500D03*
X93725000Y-83147500D03*
X94225000Y-83147500D03*
X94725000Y-83147500D03*
X95225000Y-83147500D03*
X95725000Y-83147500D03*
X96225000Y-83147500D03*
X96725000Y-83147500D03*
X97225000Y-83147500D03*
X97725000Y-83147500D03*
D29*
X99387500Y-81485000D03*
X99387500Y-80985000D03*
X99387500Y-80485000D03*
X99387500Y-79985000D03*
X99387500Y-79485000D03*
X99387500Y-78985000D03*
X99387500Y-78485000D03*
X99387500Y-77985000D03*
X99387500Y-77485000D03*
X99387500Y-76985000D03*
X99387500Y-76485000D03*
X99387500Y-75985000D03*
X99387500Y-75485000D03*
X99387500Y-74985000D03*
X99387500Y-74485000D03*
X99387500Y-73985000D03*
X99387500Y-73485000D03*
X99387500Y-72985000D03*
X99387500Y-72485000D03*
X99387500Y-71985000D03*
X99387500Y-71485000D03*
X99387500Y-70985000D03*
X99387500Y-70485000D03*
X99387500Y-69985000D03*
X99387500Y-69485000D03*
%TD*%
D15*
%TO.C,D25*%
X69037500Y-161000000D03*
X67462500Y-161000000D03*
%TD*%
D16*
%TO.C,R26*%
X87204879Y-143750000D03*
X88854879Y-143750000D03*
%TD*%
%TO.C,R25*%
X87204879Y-140500000D03*
X88854879Y-140500000D03*
%TD*%
%TO.C,R31*%
X87204879Y-152500000D03*
X88854879Y-152500000D03*
%TD*%
D12*
%TO.C,R41*%
X123293750Y-158762500D03*
X121643750Y-158762500D03*
%TD*%
D18*
%TO.C,C92*%
X119773629Y-181512500D03*
X118223629Y-181512500D03*
%TD*%
D11*
%TO.C,C35*%
X119718750Y-112787500D03*
X119718750Y-111237500D03*
%TD*%
D13*
%TO.C,C88*%
X90779879Y-183225000D03*
X90779879Y-184775000D03*
%TD*%
D19*
%TO.C,U11*%
X97979879Y-136637500D03*
X97329879Y-136637500D03*
X96679879Y-136637500D03*
X96029879Y-136637500D03*
X95379879Y-136637500D03*
X94729879Y-136637500D03*
X94079879Y-136637500D03*
X94079879Y-142362500D03*
X94729879Y-142362500D03*
X95379879Y-142362500D03*
X96029879Y-142362500D03*
X96679879Y-142362500D03*
X97329879Y-142362500D03*
X97979879Y-142362500D03*
%TD*%
D22*
%TO.C,D26*%
X147800000Y-156750000D03*
X147800000Y-160750000D03*
%TD*%
D17*
%TO.C,Q14*%
X144950000Y-175312500D03*
X143050000Y-175312500D03*
X144000000Y-177187500D03*
%TD*%
D13*
%TO.C,C30*%
X90779879Y-117725000D03*
X90779879Y-119275000D03*
%TD*%
D11*
%TO.C,C95*%
X119718750Y-184787500D03*
X119718750Y-183237500D03*
%TD*%
D16*
%TO.C,R19*%
X87204879Y-128500000D03*
X88854879Y-128500000D03*
%TD*%
%TO.C,R43*%
X87204879Y-176500000D03*
X88854879Y-176500000D03*
%TD*%
D10*
%TO.C,C91*%
X112943750Y-191762500D03*
X114493750Y-191762500D03*
%TD*%
D16*
%TO.C,R7*%
X87204879Y-104500000D03*
X88854879Y-104500000D03*
%TD*%
D13*
%TO.C,C80*%
X90779879Y-177725000D03*
X90779879Y-179275000D03*
%TD*%
D12*
%TO.C,R23*%
X123293750Y-122762500D03*
X121643750Y-122762500D03*
%TD*%
D10*
%TO.C,C2*%
X101225000Y-79750000D03*
X102775000Y-79750000D03*
%TD*%
D12*
%TO.C,R15*%
X123293750Y-117012500D03*
X121643750Y-117012500D03*
%TD*%
D13*
%TO.C,C68*%
X90779879Y-159225000D03*
X90779879Y-160775000D03*
%TD*%
D16*
%TO.C,R72*%
X144625000Y-129000000D03*
X146275000Y-129000000D03*
%TD*%
D11*
%TO.C,C74*%
X119718750Y-164037500D03*
X119718750Y-162487500D03*
%TD*%
%TO.C,C63*%
X119718750Y-155287500D03*
X119718750Y-153737500D03*
%TD*%
D12*
%TO.C,R54*%
X65875000Y-71000000D03*
X64225000Y-71000000D03*
%TD*%
%TO.C,R11*%
X123293750Y-98762500D03*
X121643750Y-98762500D03*
%TD*%
D10*
%TO.C,C61*%
X112943750Y-155762500D03*
X114493750Y-155762500D03*
%TD*%
D22*
%TO.C,D24*%
X62700000Y-151250000D03*
X62700000Y-147250000D03*
%TD*%
D14*
%TO.C,D7*%
X141462500Y-57000000D03*
X143037500Y-57000000D03*
%TD*%
D16*
%TO.C,R32*%
X87204879Y-155750000D03*
X88854879Y-155750000D03*
%TD*%
D14*
%TO.C,D27*%
X141462500Y-147000000D03*
X143037500Y-147000000D03*
%TD*%
%TO.C,D35*%
X141462500Y-183000000D03*
X143037500Y-183000000D03*
%TD*%
D21*
%TO.C,U16*%
X112518750Y-165875000D03*
X113168750Y-165875000D03*
X113818750Y-165875000D03*
X114468750Y-165875000D03*
X115118750Y-165875000D03*
X115768750Y-165875000D03*
X116418750Y-165875000D03*
X116418750Y-160150000D03*
X115768750Y-160150000D03*
X115118750Y-160150000D03*
X114468750Y-160150000D03*
X113818750Y-160150000D03*
X113168750Y-160150000D03*
X112518750Y-160150000D03*
%TD*%
D10*
%TO.C,C27*%
X90725000Y-121000000D03*
X92275000Y-121000000D03*
%TD*%
D16*
%TO.C,R48*%
X87204879Y-185500000D03*
X88854879Y-185500000D03*
%TD*%
D18*
%TO.C,C26*%
X97554879Y-110750000D03*
X96004879Y-110750000D03*
%TD*%
D17*
%TO.C,Q2*%
X144950000Y-67312500D03*
X143050000Y-67312500D03*
X144000000Y-69187500D03*
%TD*%
D15*
%TO.C,D17*%
X69037500Y-125000000D03*
X67462500Y-125000000D03*
%TD*%
D12*
%TO.C,R9*%
X123293750Y-105012500D03*
X121643750Y-105012500D03*
%TD*%
D22*
%TO.C,D28*%
X62700000Y-169250000D03*
X62700000Y-165250000D03*
%TD*%
D12*
%TO.C,R46*%
X123293750Y-174012500D03*
X121643750Y-174012500D03*
%TD*%
D18*
%TO.C,C16*%
X97554879Y-98750000D03*
X96004879Y-98750000D03*
%TD*%
D12*
%TO.C,R21*%
X123293750Y-129012500D03*
X121643750Y-129012500D03*
%TD*%
D13*
%TO.C,C78*%
X90779879Y-171225000D03*
X90779879Y-172775000D03*
%TD*%
D12*
%TO.C,R79*%
X67325000Y-171250000D03*
X65675000Y-171250000D03*
%TD*%
D16*
%TO.C,R68*%
X144625000Y-111000000D03*
X146275000Y-111000000D03*
%TD*%
D13*
%TO.C,C39*%
X90779879Y-126475000D03*
X90779879Y-128025000D03*
%TD*%
D15*
%TO.C,D21*%
X69037500Y-143000000D03*
X67462500Y-143000000D03*
%TD*%
D10*
%TO.C,C67*%
X90725000Y-169000000D03*
X92275000Y-169000000D03*
%TD*%
M02*
