M48
INCH
T1C0.0157
T2C0.0315
T3C0.0362
T4C0.0394
T5C0.0512
T6C0.0520
T7C0.0917
%
G90
G05
T1
X2.7362Y-7.1063
X2.7461Y-3.5728
X2.7461Y-4.2815
X2.7461Y-4.9902
X2.7461Y-5.6988
X2.7461Y-6.4075
X2.7665Y-2.8438
X2.8839Y-7.7461
X2.973Y-2.9128
X2.9823Y-2.9626
X2.9823Y-3.0217
X2.9823Y-3.0807
X2.9823Y-3.1398
X2.9823Y-3.1988
X2.9823Y-3.2579
X2.9823Y-3.3169
X3.0217Y-3.3563
X3.0512Y-3.3858
X3.0807Y-3.4154
X3.1201Y-3.4547
X3.1594Y-3.4941
X3.1988Y-3.5335
X3.2283Y-2.7067
X3.2382Y-3.5728
X3.2874Y-2.6476
X3.3071Y-3.2776
X3.3465Y-4.7736
X3.3465Y-4.872
X3.3465Y-5.2461
X3.3465Y-5.3445
X3.3465Y-5.7185
X3.3465Y-5.8169
X3.3465Y-6.1909
X3.3465Y-6.2894
X3.3465Y-6.6634
X3.3465Y-6.7618
X3.3465Y-7.1358
X3.3465Y-7.2343
X3.3858Y-2.7657
X3.4055Y-3.1299
X3.4055Y-3.5433
X3.4537Y-2.7648
X3.4547Y-3.061
X3.4843Y-3.4744
X3.5039Y-7.126
X3.5236Y-2.7657
X3.5728Y-3.061
X3.6319Y-4.2224
X3.6319Y-4.4291
X3.6319Y-4.6949
X3.6319Y-4.9114
X3.6319Y-5.1772
X3.6375Y-3.1749
X3.6516Y-5.3642
X3.6516Y-5.6299
X3.6516Y-5.8465
X3.6516Y-6.1122
X3.6516Y-6.3189
X3.6516Y-6.5846
X3.6516Y-6.7815
X3.6516Y-7.0472
X3.6909Y-3.3563
X3.6909Y-4.3602
X3.6909Y-4.8327
X3.6909Y-5.3051
X3.6909Y-5.7776
X3.6909Y-6.25
X3.6909Y-6.7224
X3.6909Y-7.126
X3.6909Y-7.1949
X3.7008Y-4.2913
X3.7402Y-4.2618
X3.7402Y-4.7343
X3.7402Y-5.2165
X3.7402Y-5.6791
X3.7402Y-6.1516
X3.7402Y-6.624
X3.7402Y-7.0965
X3.7403Y-4.3208
X3.7403Y-4.7932
X3.7403Y-5.2657
X3.7403Y-5.7381
X3.7403Y-6.2105
X3.7403Y-6.683
X3.7403Y-7.1554
X3.7697Y-2.5295
X3.8287Y-2.5197
X3.8386Y-3.8189
X3.8583Y-4.0354
X3.8878Y-2.3327
X3.8878Y-2.4114
X3.8878Y-2.5197
X3.8878Y-2.6083
X3.8878Y-4.065
X3.9075Y-4.1142
X3.9075Y-4.6358
X3.9173Y-5.1181
X3.9173Y-6.9193
X3.937Y-5.5906
X3.9401Y-4.2594
X3.9469Y-4.7343
X3.9469Y-5.2165
X3.9469Y-5.6791
X3.9469Y-6.0531
X3.9469Y-6.1516
X3.9469Y-6.624
X3.9469Y-7.0965
X3.9567Y-4.1732
X3.9567Y-6.5157
X3.9961Y-4.2913
X4.0059Y-4.7343
X4.0059Y-7.4705
X4.0157Y-5.2165
X4.0354Y-5.689
X4.0453Y-6.1516
X4.0551Y-3.2382
X4.0551Y-6.6142
X4.065Y-7.0866
X4.0846Y-2.2539
X4.0846Y-2.6083
X4.1043Y-7.5689
X4.1535Y-3.2185
X4.1634Y-7.4902
X4.2126Y-2.4803
X4.2815Y-6.3091
X4.2913Y-3.563
X4.3012Y-6.8012
X4.311Y-5.1476
X4.311Y-5.6102
X4.311Y-5.8661
X4.311Y-6.0827
X4.311Y-6.5551
X4.3209Y-5.4134
X4.3307Y-4.9409
X4.3406Y-4.5571
X4.3504Y-3.6614
X4.3504Y-3.7894
X4.3602Y-4.3996
X4.3602Y-7.3425
X4.3701Y-4.0551
X4.3701Y-4.5079
X4.3898Y-3.878
X4.4291Y-3.8189
X4.4685Y-7.3819
X4.4698Y-3.8002
X4.5079Y-3.7795
X4.5177Y-4.3209
X4.5177Y-4.7933
X4.5177Y-5.2657
X4.5177Y-5.7382
X4.5177Y-6.2106
X4.5177Y-6.6831
X4.5177Y-7.1555
X4.5276Y-2.5591
X4.5763Y-2.3986
X4.5768Y-2.3327
X4.5856Y-4.7151
X4.5856Y-6.1324
X4.5856Y-6.6048
X4.5856Y-7.0773
X4.5858Y-4.2429
X4.5858Y-5.1878
X4.5858Y-5.6602
X4.6063Y-7.5492
X4.6457Y-5.1476
X4.6457Y-5.6102
X4.6457Y-6.0827
X4.6457Y-6.5551
X4.6476Y-3.5
X4.6489Y-7.4409
X4.6545Y-3.4293
X4.6555Y-4.1339
X4.6555Y-4.3799
X4.6555Y-4.6063
X4.6555Y-4.6752
X4.6555Y-5.0787
X4.6555Y-5.5512
X4.6555Y-6.0236
X4.6555Y-6.4961
X4.6555Y-6.9685
X4.7539Y-3.6713
X4.7835Y-4.3012
X4.7835Y-4.7736
X4.7835Y-5.2461
X4.7835Y-5.7185
X4.7835Y-6.1909
X4.7835Y-6.6732
X4.7835Y-7.1457
X4.8031Y-7.3819
X4.8327Y-3.8287
X5.0689Y-2.9724
X5.0689Y-3.3268
X5.128Y-3.6713
X5.1673Y-6.122
X5.187Y-4.2323
X5.2067Y-3.5039
X5.2067Y-6.8898
X5.2067Y-7.0768
X5.2165Y-2.9232
X5.2165Y-5.4724
X5.2362Y-5.0
X5.2756Y-6.4173
X5.3051Y-7.1752
X5.4035Y-3.0906
X5.4035Y-3.2185
X5.4331Y-7.1654
X5.502Y-6.122
X5.5217Y-4.2323
X5.5315Y-2.7953
X5.5315Y-7.0669
X5.5413Y-3.5039
X5.5413Y-6.378
X5.5413Y-6.8898
X5.5512Y-5.4724
X5.5709Y-5.0
X5.6102Y-2.7953
X5.748Y-3.75
X5.748Y-4.4587
X5.748Y-5.1673
X5.748Y-5.8858
X5.748Y-7.2933
X5.7579Y-3.0413
X5.7579Y-6.5846
X5.8268Y-2.9528
X5.8465Y-4.3602
X5.8465Y-5.0689
X5.8465Y-5.7874
X5.8465Y-7.1949
X5.8563Y-3.6516
X5.8563Y-6.4862
T2
X2.4362Y-2.5978
X2.4362Y-2.6978
X2.4362Y-3.3065
X2.4362Y-3.4065
X2.4362Y-4.0152
X2.4362Y-4.1152
X2.4362Y-4.7238
X2.4362Y-4.8238
X2.4362Y-5.4325
X2.4362Y-5.5325
X2.4362Y-6.1411
X2.4362Y-6.2411
X2.4362Y-6.8498
X2.4362Y-6.9498
X2.4362Y-7.5585
X2.4362Y-7.6585
X2.7362Y-2.5978
X2.7362Y-2.6978
X2.7362Y-3.3065
X2.7362Y-3.4065
X2.7362Y-4.0152
X2.7362Y-4.1152
X2.7362Y-4.7238
X2.7362Y-4.8238
X2.7362Y-5.4325
X2.7362Y-5.5325
X2.7362Y-6.1411
X2.7362Y-6.2411
X2.7362Y-6.8498
X2.7362Y-6.9498
X2.7362Y-7.5585
X2.7362Y-7.6585
X5.5512Y-2.3415
X5.5512Y-2.4415
X5.5512Y-3.0502
X5.5512Y-3.1502
X5.5512Y-3.7589
X5.5512Y-3.8589
X5.5512Y-4.4675
X5.5512Y-4.5675
X5.5512Y-5.1762
X5.5512Y-5.2762
X5.5512Y-5.8848
X5.5512Y-5.9848
X5.5512Y-6.5935
X5.5512Y-6.6935
X5.5512Y-7.3022
X5.5512Y-7.4022
X5.8512Y-2.3415
X5.8512Y-2.4415
X5.8512Y-3.0502
X5.8512Y-3.1502
X5.8512Y-3.7589
X5.8512Y-3.8589
X5.8512Y-4.4675
X5.8512Y-4.5675
X5.8512Y-5.1762
X5.8512Y-5.2762
X5.8512Y-5.8848
X5.8512Y-5.9848
X5.8512Y-6.5935
X5.8512Y-6.6935
X5.8512Y-7.3022
X5.8512Y-7.4022
T3
X5.0295Y-2.7393
X5.0295Y-2.818
X5.128Y-2.7393
X5.128Y-2.818
T4
X2.0984Y-2.2815
X2.0984Y-2.7539
X2.0984Y-2.9902
X2.0984Y-3.4626
X2.0984Y-3.6988
X2.0984Y-4.1713
X2.0984Y-4.4075
X2.0984Y-4.8799
X2.0984Y-5.1161
X2.0984Y-5.5886
X2.0984Y-5.8248
X2.0984Y-6.2972
X2.0984Y-6.5335
X2.0984Y-7.0059
X2.0984Y-7.2421
X2.0984Y-7.7146
X3.3148Y-2.3809
X3.3148Y-2.4809
X3.4148Y-2.3809
X3.4148Y-2.4809
X3.5148Y-2.3809
X3.5148Y-2.4809
X6.189Y-2.2854
X6.189Y-2.7579
X6.189Y-2.9941
X6.189Y-3.4665
X6.189Y-3.7028
X6.189Y-4.1752
X6.189Y-4.4114
X6.189Y-4.8839
X6.189Y-5.1201
X6.189Y-5.5925
X6.189Y-5.8287
X6.189Y-6.3012
X6.189Y-6.5374
X6.189Y-7.0098
X6.189Y-7.2461
X6.189Y-7.7185
T5
X1.6181Y-2.2815
X1.6181Y-2.9902
X1.6181Y-3.6988
X1.6181Y-4.4075
X1.6181Y-5.1161
X1.6181Y-5.8248
X1.6181Y-6.5335
X1.6181Y-7.2421
X2.1752Y-2.5197
X2.1752Y-3.2283
X2.1752Y-3.937
X2.1752Y-4.6457
X2.1752Y-5.3543
X2.1752Y-6.063
X2.1752Y-6.7717
X2.1752Y-7.4803
X6.1122Y-2.5197
X6.1122Y-3.2283
X6.1122Y-3.937
X6.1122Y-4.6457
X6.1122Y-5.3543
X6.1122Y-6.063
X6.1122Y-6.7717
X6.1122Y-7.4803
X6.6693Y-2.7579
X6.6693Y-3.4665
X6.6693Y-4.1752
X6.6693Y-4.8839
X6.6693Y-5.5925
X6.6693Y-6.3012
X6.6693Y-7.0098
X6.6693Y-7.7185
T6
X1.1713Y-2.4114
X1.1713Y-2.6083
X1.1713Y-3.1201
X1.1713Y-3.3169
X1.1713Y-3.8287
X1.1713Y-4.0256
X1.1713Y-4.5374
X1.1713Y-4.7343
X1.1713Y-5.2461
X1.1713Y-5.4429
X1.1713Y-5.9547
X1.1713Y-6.1516
X1.1713Y-6.6634
X1.1713Y-6.8602
X1.1713Y-7.372
X1.1713Y-7.5689
X3.1409Y-3.9769
X3.1409Y-4.1737
X3.1409Y-4.4493
X3.1409Y-4.6462
X3.1409Y-4.9218
X3.1409Y-5.1186
X3.1409Y-5.3942
X3.1409Y-5.591
X3.1409Y-5.8666
X3.1409Y-6.0635
X3.1409Y-6.3391
X3.1409Y-6.5359
X3.1409Y-6.8115
X3.1409Y-7.0084
X3.1409Y-7.284
X3.1409Y-7.4808
X4.2028Y-7.8931
X4.2028Y-8.09
X5.1464Y-3.9567
X5.1464Y-4.1535
X5.1464Y-4.4291
X5.1464Y-4.626
X5.1464Y-4.9016
X5.1464Y-5.0984
X5.1464Y-5.374
X5.1464Y-5.5709
X5.1464Y-5.8465
X5.1464Y-6.0433
X5.1464Y-6.3189
X5.1464Y-6.5157
X5.1464Y-6.7913
X5.1464Y-6.9882
X5.1464Y-7.2638
X5.1464Y-7.4606
X7.1161Y-2.4311
X7.1161Y-2.628
X7.1161Y-3.1398
X7.1161Y-3.3366
X7.1161Y-3.8484
X7.1161Y-4.0453
X7.1161Y-4.5571
X7.1161Y-4.7539
X7.1161Y-5.2657
X7.1161Y-5.4626
X7.1161Y-5.9744
X7.1161Y-6.1713
X7.1161Y-6.6831
X7.1161Y-6.8799
X7.1161Y-7.3917
X7.1161Y-7.5886
T7
X4.8417Y-2.6326
X5.3157Y-2.6326
T0
M30
